<?xml version="1.0" encoding="UTF-8" standalone="no"?>
<svg
   xmlns:dc="http://purl.org/dc/elements/1.1/"
   xmlns:cc="http://creativecommons.org/ns#"
   xmlns:rdf="http://www.w3.org/1999/02/22-rdf-syntax-ns#"
   xmlns:svg="http://www.w3.org/2000/svg"
   xmlns="http://www.w3.org/2000/svg"
   xmlns:sodipodi="http://sodipodi.sourceforge.net/DTD/sodipodi-0.dtd"
   xmlns:inkscape="http://www.inkscape.org/namespaces/inkscape"
   width="543.94037"
   height="307.63174"
   id="svg2"
   version="1.1"
   inkscape:version="0.48.5 r10040"
   sodipodi:docname="Flag_map_of_Nepal.svg">
  <metadata
     id="metadata18">
    <rdf:RDF>
      <cc:Work
         rdf:about="">
        <dc:format>image/svg+xml</dc:format>
        <dc:type
           rdf:resource="http://purl.org/dc/dcmitype/StillImage" />
      </cc:Work>
    </rdf:RDF>
  </metadata>
  <defs
     id="defs16" />
  <sodipodi:namedview
     pagecolor="#ffffff"
     bordercolor="#666666"
     borderopacity="1"
     objecttolerance="10"
     gridtolerance="10"
     guidetolerance="10"
     inkscape:pageopacity="0"
     inkscape:pageshadow="2"
     inkscape:window-width="1366"
     inkscape:window-height="716"
     id="namedview14"
     showgrid="false"
     fit-margin-top="0"
     fit-margin-left="0"
     fit-margin-right="0"
     fit-margin-bottom="0"
     inkscape:zoom="2"
     inkscape:cx="290.44351"
     inkscape:cy="106.05939"
     inkscape:window-x="-8"
     inkscape:window-y="-8"
     inkscape:window-maximized="1"
     inkscape:current-layer="svg2" />
  <path
     inkscape:connector-curvature="0"
     class="fil2"
     d="m 284.40889,116.56423 -3.39378,-2.00374 -1.89532,-3.06744 1.68591,-6.40842 -0.74161,-1.00418 -1.48217,-0.47976 -1.53071,-0.89965 -0.3724,-2.38003 -0.27035,-0.73772 -0.41493,-0.53008 -1.42866,-1.42902 -0.42094,-1.48039 0.6339,-1.21748 0.89681,-1.16717 0.41988,-1.27169 -0.36177,-1.05555 -0.90355,-0.15732 -1.11082,0.15732 -0.90142,-0.20657 -0.47126,-0.79866 -0.42732,-2.06221 -0.58075,-0.73842 -1.21854,0 -1.27099,0.4787 -1.16043,0.20267 -0.95669,-0.89185 -0.58146,-0.79299 -0.79122,-0.16087 -0.85288,0.20835 -0.79476,0.42555 -0.21047,-1.00523 -0.36567,-0.58146 -0.63567,-0.32103 -0.84437,-0.2133 -0.79299,0 -1.27382,0.2133 -2.06575,0.53115 -0.42059,0.42271 -0.5276,1.00453 -0.52618,0.20941 -1.59449,0.47587 -2.95866,1.485 -1.5385,0.15519 -1.63914,-0.15519 -1.74897,0.0535 -1.58386,0.57755 -1.37374,1.32697 -0.4741,1.21288 -0.31783,1.3298 -0.47232,1.06051 -1.11544,0.47233 -1.00736,-0.0553 -2.69858,-0.52654 -0.79583,-0.4787 -0.73701,-0.58075 -1.70114,-0.20941 -0.78449,-0.32067 -0.4748,-0.63602 -0.16193,-0.74339 -0.1598,-1.63346 -0.63425,-2.86087 -0.63957,-1.11366 -1.16327,-0.83976 -1.84783,-0.74162 -0.74339,-0.6346 -0.57685,-2.12103 -0.69201,-0.58074 -0.84933,-0.42662 -0.79016,-0.73559 -0.31783,-1.06264 0.0542,-0.90248 -0.15874,-0.84047 -2.00976,-1.64303 -0.10665,-0.95386 0.15909,-1.11083 -0.15909,-1.37374 -1.85067,-1.85067 -4.29024,0.95493 -1.11189,-1.63843 0.10665,-0.90992 0.37418,-0.52264 0.36637,-0.42449 0.26469,-0.63425 -0.16087,-1.10799 -0.58181,-1.00807 -1.53425,-1.52894 -0.52866,-0.3196 -1.10799,-0.37701 -0.52831,-0.30933 -0.15874,-0.3763 -0.26752,-1.00524 -0.21437,-0.37205 -0.94819,-0.68633 -0.73949,-0.31607 -0.79795,0 -1.58563,0.15803 -1.74402,0.42059 -0.47905,0.21721 -0.31677,0.79193 -0.2087,1.06051 -0.37595,0.79406 -1.0063,0.10559 -0.68634,-0.58536 -0.89078,-1.79752 -0.53894,-0.80256 -3.80764,-3.27366 -0.78838,-0.15697 -1.48394,0.21402 -0.68563,-0.0571 -0.53008,-0.42449 -1.00346,-1.11366 -0.63603,-0.30933 -1.27346,0.58323 -1.53851,1.10728 -1.37267,0.47587 -0.9567,-1.37658 -0.47126,-0.89646 -0.68633,-0.48259 -0.79477,-0.26469 -0.78909,-0.42094 -0.73985,-0.68351 -1.27275,-1.90771 -4.02095,-3.11847 -0.63779,-1.27665 0.20834,-0.89681 0.26575,-0.73772 0,-0.64063 -0.79193,-0.4748 -0.6874,-0.0457 -1.36984,0.41385 -0.68917,0 -1.17,-0.79086 -5.12717,-6.29327 -1.16894,-0.69413 -3.22547,-1.00701 -1.26886,-0.63425 -1.22137,-0.89965 -1.05556,-1.04988 -0.84437,-1.11473 -1.06334,-0.63602 -1.00453,0 -1.05449,0.16016 -1.06264,-0.20658 -0.57685,-0.42944 -0.7976,-1.21749 -0.53114,-0.47799 -1.5346,-0.36531 -1.31174,0 -1.3833,-0.21721 -3.01571,-1.90204 -1.22032,0.26858 -1.21181,0.42342 -1.38118,-0.21224 -0.63319,-0.84827 -0.57791,-1.53531 -0.48083,-1.58882 -0.0514,-1.0024 1.58422,-2.86052 0.32173,-1.47933 -1.05591,-0.95315 -1.74472,-0.58712 -1.22315,-0.8426 -0.73878,-1.32307 -0.16087,-2.0126 0.74339,-4.33878 -0.32067,-1.16043 -1.0598,-0.52937 -1.52788,-0.15626 -2.80346,0.21153 -0.63284,0.20941 -0.69129,0.31713 -0.6378,0.21685 -0.6378,-0.11232 -0.47019,-0.42166 -0.7976,-1.11295 -0.57966,-0.41881 -1.32129,-0.26752 -2.32299,0.21437 -2.86831,-1.22527 -1.42476,0.21508 -1.42902,0.53327 -1.48323,0.20551 -1.4811,-0.36355 -8.0915,-3.59929 L 105.82622,0 l -1.485,0.21331 -0.42556,0.47976 -0.2009,0.63213 -0.38268,0.63106 -0.89468,0.42555 -1.26815,0.20835 -0.47197,0.3189 -0.31713,0.63708 -0.797597,2.91083 -0.74161,0.26185 -1.74508,-0.26185 -1.37728,-0.74516 -2.43142,-2.3237 -1.273819,-0.5315 -1.322008,0.42378 -0.155197,0.95493 0.155197,1.21074 -0.367441,1.05945 -0.691299,1.06051 -0.211181,1.22138 0.05031,2.63976 0.108425,0.6339 0.429449,1.21855 0.04961,0.63779 -0.216141,0.73417 -0.841536,1.38296 -0.314291,2.38004 -0.479764,1.21464 -0.791929,1.00807 -1.065118,0.74055 -0.847205,0.15626 -1.107283,-0.0542 -1.003465,0.0542 -0.742323,0.52937 -0.0535,0.53008 0.526536,1.16327 0.106653,0.52937 -0.263622,1.17 -0.316063,0.7898 -0.687401,0.47906 -1.162205,0.31677 -0.910276,0.62929 0.112323,2.11429 -0.684212,1.11756 -1.540276,0.26185 -3.070984,-1.42795 -1.581378,0.0485 -1.801063,0.42945 -0.846142,-0.69024 -0.739843,-3.43736 -0.475866,-1.16256 -1.537441,-2.48811 -0.846141,-2.48846 -0.791221,-1.48217 -0.850039,-1.21854 -0.686339,-0.63213 -0.524409,0.0496 -4.501063,1.48677 -1.162205,-0.26645 -0.693071,-1.32697 -0.634961,-0.95102 -1.049881,0.79689 -1.168937,1.37551 -0.953859,0.89752 0.899646,2.0133 -1.32626,1.95839 -4.014212,3.0072 -0.954922,0.95847 -2.010472,3.1709 -0.636024,0.68847 -2.374016,1.64587 -1.751456,1.57748 -0.849331,0.58996 -1.267087,0.36673 -2.437086,0.31677 -1.004173,0.53398 -0.532205,1.32236 -0.891851,2.69894 -1.485,2.38074 -3.441262,4.23036 -1.427245,1.1661 -3.316535,0.88335 0.0011,59.77665 0,27.27354 0.195236,0.007 1.214646,0.73985 2.854842,3.38775 1.330867,0.69024 0.30933,-1.00807 -0.578622,-4.76256 0.215788,-1.32803 0.636023,-1.00063 1.3213,-0.79087 2.585551,0.10276 0.211181,0.42555 -0.09992,0.69201 -0.05209,0.68067 0.416693,0.63602 1.221378,0.58252 1.162559,0.37488 2.436732,0.46772 0.896811,0.58641 1.325197,2.53666 0.685276,0.90177 1.113661,0.52831 2.118189,0.57685 1.105157,0.74622 2.541969,2.64437 1.116496,0.69236 1.268858,0.26079 2.698937,0 0.951733,0.42271 0.580039,1.11473 0.02835,0.31004 c -0.0124,-0.72319 -0.01807,-1.44957 -0.01807,-2.17595 l 0.0011,-0.26008 c 0.718582,1.83367 1.475433,3.6489 2.271259,5.44146 l 0.414922,0.12756 1.323425,0.31323 1.319173,0 1.01126,-0.37701 0.788031,0.48827 0.26752,0.78626 0.102756,0.94925 0.482599,0.79476 5.965157,1.1615 3.820039,0.74339 1.535315,0.79972 1.374804,1.74189 1.377283,4.49823 0.242008,0.56551 0.663307,1.55232 3.856535,4.4954 0.954922,1.80673 -1.061575,0.41598 -0.26752,0.63284 0.428386,0.58854 1.113661,0.26185 -0.212952,1.06229 0.740551,0.31677 1.110827,-0.16264 0.953858,-0.47799 0.578622,-0.90142 0.181063,-0.55028 0.132165,-0.40074 0.427677,-0.68918 1.009843,-0.096 1.528937,0.52724 1.429731,0.99851 1.2196,1.32342 0.84508,1.38225 0.31429,1.10693 0.0571,0.74267 0.31217,0.74516 1.01197,0.78732 5.922277,3.06709 1.32874,0.95776 0.84331,1.37196 0.045,0.0531 1.33441,1.00347 3.32326,0.79583 0.0638,0.0227 18.53149,-4.73208 -13.39475,-22.545 25.9579,3.75342 -3.72685,-25.9565 22.545,13.39654 6.46087,-25.41224 15.7174,20.98098 15.71209,-20.97886 6.46547,25.40941 22.54323,-13.39583 -3.72898,25.95934 25.95862,-3.7552 -13.39476,22.54287 25.41047,6.49063 -21.00578,15.71457 10.63417,7.94232 c 25.25811,-15.1572 45.1063,-38.42645 55.97929,-66.18897 l 0,0.25866 c 0,30.2283 -10.78441,57.95291 -28.71354,79.53342 l 0.46169,1.12252 0.63106,0.20941 2.01898,-0.31712 0.8961,0.6874 0.68705,1.42901 1.21961,1.79894 1.47543,0.95386 19.21216,3.54614 1.95556,1.36984 1.6944,2.54658 1.1126,2.74429 0.63213,2.80524 0.16087,2.91118 -0.37878,3.01677 -0.68351,1.58988 -0.95386,1.74189 -0.57401,1.74968 0.41315,1.58989 0.85287,0.63106 8.04402,2.21705 0.74551,0 0.89291,-0.73595 1.10906,-0.36921 1.05732,0.20835 0.69024,1.21748 1.59165,0.95881 3.3261,1.10906 1.48607,0.89965 1.00417,1.42476 0.36957,1.58882 0.58145,1.3748 1.53355,0.79583 0.79795,0.21224 0.84331,0.16087 1.16893,0.58075 -0.0549,1.11366 0.10276,1.05484 1.69157,0.1591 3.76122,-1.53745 1.52965,-0.15803 2.59795,1.10906 0.21012,2.27409 0.062,2.64083 1.94669,2.06929 6.14197,1.64799 1.00736,-0.0581 2.32831,-0.68527 1.10728,-0.8465 1.05662,-1.26886 1.11189,-1.06157 1.16326,0.11161 1.22138,0.36071 1.21536,-0.42094 2.3811,-1.32485 2.96149,-1.57925 5.23843,-2.12102 0.74445,0.26185 5.23842,2.96823 0.95209,1.16964 0.53008,2.58484 -0.53008,5.55449 0.74268,2.64827 0.94712,1.21287 3.60213,2.91189 0.58358,0.1591 0.68138,-0.31429 0.63779,-0.16477 0.52654,0.47906 0.16193,0.63957 0,0.68244 0.10382,0.58571 0.47126,0.42271 1.06901,-0.21614 1.48004,-0.8465 4.54571,-4.01244 1.1661,-0.69201 1.59272,-0.16086 2.37579,-0.73665 2.01153,0.67854 4.59886,2.91401 0.37524,0.3189 0.42059,0.1637 1.48146,-0.10842 0.52547,0.0532 1.00878,0.31429 0.47409,0.26646 0.32563,0.37311 0.41811,0.31889 0.68705,0.10382 0.47232,-0.16264 1.48394,-0.94818 2.5448,-0.90461 1.42795,-0.21012 1.11083,0.26752 0.47197,0.47303 0.0592,1.11473 0.4741,0.53114 0.4787,0.0446 1.42512,-0.20551 0.57897,0 2.01685,0.73488 1.49563,0.83764 40.23213,0 0.49606,-0.52051 0.94146,-0.8465 0.80256,0 0.19878,1.36701 70.20354,0 0.4454,-1.52291 3.015,-5.98394 1.11543,-3.33 0.26362,-1.47827 0.10382,-1.43468 -0.0493,-1.42229 -0.58288,-3.01854 -0.26468,-3.22618 -0.26717,-1.3298 -0.58358,-1.15583 -1.47862,-2.28189 -0.58146,-1.15831 -1.00453,-2.64472 -1.32767,-2.48634 -1.37268,-1.96193 -0.90071,-0.84153 -1.05378,-0.4787 -1.1661,-0.79583 -1.22032,-2.69788 -1.052,-1.00629 -0.3189,-0.58359 -0.11232,-0.63212 0.11232,-0.63213 0.94712,-2.17311 0.26752,-5.29016 2.69504,-6.02858 0.37418,-1.85138 -0.15803,-0.84933 -0.8465,-1.48323 -0.26752,-0.79193 -0.10276,-1.06334 0.21331,-0.84437 0.51874,-1.74473 0.26858,-0.47515 0.37418,-0.37311 0.26468,-0.47516 0.15874,-0.63213 -0.10736,-0.3196 -0.58181,-0.63319 -0.21118,-0.3189 -0.31713,-1.48039 -0.0532,-0.74445 0.0532,-0.79477 0.82453,-1.85527 -37.1824,-23.28378 -0.25973,0.062 -5.92512,1.68874 -1.15937,0.0609 0,-1.16823 0.78733,-1.27063 0.26575,-1.0024 -1.42725,-0.42201 -1.85138,0.62859 -1.48039,1.37622 -1.53638,0.95669 -3.86964,-1.05449 -3.38032,0.41669 -1.79752,-0.10169 -2.59583,-1.43079 -3.64606,-4.8111 -2.11606,-2.28189 -1.64587,-1.00346 -1.16326,-0.0503 -1.21465,0.36638 -2.01154,0.31323 -1.69441,-0.15414 -1.43185,-0.68527 -1.10409,-1.21854 -0.58571,-1.7993 0,-0.0531 -1.85031,-1.48429 -4.70835,0.21508 -2.01437,-0.73559 -0.52264,-1.01303 0.26185,-2.21988 -0.26185,-0.94642 -0.95953,-0.85181 -1.21287,-0.79583 -1.26886,-0.52653 -1.22421,-0.056 -0.84154,0.42555 -1.485,1.32768 -1.00452,0.26398 -1.05733,-0.48189 -0.89964,-0.89965 -0.89788,-0.63567 -1.05945,0.16087 -0.63389,0.84331 -0.21331,1.11082 0,1.22244 -0.15413,1.16504 -0.53398,1.00453 -0.58075,0.74232 -0.37134,0.89575 0,1.32236 0,1.74402 -0.41988,1.43362 -0.89964,1.10906 -1.42512,0.73878 -2.44063,1.26779 -0.89575,0.10772 -1.3213,-0.52547 -2.27339,-1.90489 -0.58712,-0.32456 -0.6378,0.11232 -0.52476,0.26468 -0.52831,0.26363 -0.63567,-0.15803 -0.68952,-0.4826 -1.53922,-1.95237 -1.11082,-0.9007 -1.26532,-0.26469 -1.37445,-0.15413 -1.38614,-0.37418 0,-0.0531 -1.00134,-0.58074 -0.47232,-0.90355 -0.47764,-2.16744 -0.47799,-0.84649 -0.47516,-0.57863 -0.1559,-0.68633 0.58074,-1.32804 0.42449,-1.48606 -0.0553,-1.84181 -0.68351,-1.485 -1.3259,-0.26398 -5.87374,6.03248 0.11445,0.73878 0.78803,1.11402 0.21047,0.58146 -0.0524,0.42378 -0.3189,1.27275 0,0.63284 -0.10772,0.47019 0.10772,0.42945 0.6339,0.47232 0,0.0531 0.58748,0.68457 0,0.57862 -0.16264,0.69414 0,0.7937 0.37205,0.58287 0.42165,0.47693 0.31996,0.52618 0.0524,0.79229 -0.3724,0.26822 -2.1189,2.11429 -0.94429,0.42378 -0.6959,0.16158 -1.63843,-0.20941 -3.06425,0.36461 -1.22527,-0.47587 -0.7356,-1.84854 0.0532,-1.59095 0.26079,-1.48216 0.0563,-1.4765 -0.84933,-1.37835 -2.3276,-2.11606 -0.73488,-1.00524 -0.53008,-1.74968 -0.0563,-0.94535 0.11055,-0.69024 -0.16193,-0.74162 -1.11189,-1.53921 -0.31889,-1.68484 -0.26363,-0.79406 -1.00984,-1.1661 -1.42334,-0.8511 -2.96611,-1.3213 -1.74012,-1.15866 -1.48712,-1.38189 -1.27276,-1.63665 -1.05484,-1.95343 -0.10169,-3.34028 -0.32173,-1.64125 -0.95599,0.16015 -0.20551,0.63284 0.0507,0.69307 -0.10595,0.68173 -0.47693,0.42909 -1.37267,0.52937 -0.52831,0.41989 -1.85421,2.80523 -0.84933,0 -0.89965,-0.94889 -1.37338,-0.90142 -1.42725,-0.36744 -1.53425,-0.21544 -1.52894,0.0507 -1.48783,0.26469 -1.90488,-1.00347 -1.05591,-0.36921 -1.06335,0.0485 -0.95173,0.58252 -1.53177,1.69619 -1.05874,0.47055 -1.1126,-0.10311 -0.74161,-0.52618 -0.57225,-0.68457 -0.90602,-0.42662 -0.74091,0.15626 -1.90736,0.84898 -0.89681,0.2211 -1.05768,-0.0687 -1.32236,-0.30827 -1.22138,-0.47515 -2.11712,-1.96477 -1.27063,0.26929 -1.36807,0.63319 -1.6441,0 -1.48004,-0.90248 -0.47799,-1.10905 0.37028,-3.22512 0,-1.48039 -0.58536,-4.13044 0.42626,-0.74232 1.74685,-1.00169 0.37807,-1.05839 0,-1.38614 0.0981,-0.4663 0.41776,-0.5315 1.17,-0.47409 0.47197,-0.36744 0.42767,-0.69272 0.20552,-0.63212 0.74728,-3.76122 -0.4787,-0.89504 -3.27969,-1.06229 -2.4835,-1.74685 -1.32413,-0.52724 -1.53638,0.37488 -0.4741,0.41811 -0.42838,0.63602 -0.63603,1.32485 -0.42378,0.63319 -0.57472,0.26362 -0.6378,0.15803 -2.00976,1.05874 -0.37098,0.47764 -0.84437,1.79752 -0.52866,0.47374 -0.6378,0.16582 -0.74516,-0.0542 -1.11012,-0.37134 -0.7937,-0.1598 -3.70311,0.26079 -0.79299,-0.10099 -0.84827,-0.37417 -1.16043,-0.94819 -1.74508,-1.95697 -1.27063,-0.69023 -3.07098,-0.1552 -0.89575,-0.64063 0.36744,-3.49087 -0.79228,-0.57862 -1.27453,-0.26291 -1.31457,-0.53008 -0.43016,-0.53114 -0.62858,-1.32803 -0.63779,-0.3104 -3.70382,-0.6339 -1.3213,-0.48366 -1.05945,-0.68634 -1.16646,-0.47019 -1.53637,0.0485 -1.63914,-0.47516 -0.90354,-1.48322 -1.00134,-3.49371 -0.52547,-0.68421 -1.43079,-1.22138 -1.11366,-1.79539 -0.68847,-0.63602 -0.8433,-0.32174 -4.54642,-0.94996 z"
     id="path14"
     style="fill:#dc143c;fill-opacity:1;fill-rule:evenodd;stroke:none" />
  <path
     inkscape:connector-curvature="0"
     class="fil3"
     d="m 222.40739,161.27226 3.72898,-25.95933 -22.54323,13.39583 -6.46547,-25.40941 -15.71209,20.97885 -15.7174,-20.98098 -6.46087,25.41224 -22.545,-13.39653 3.72686,25.95649 -25.95792,-3.75342 13.39477,22.545 -18.5315,4.73209 1.52504,0.557 1.43291,1.16504 2.64437,2.85697 3.33567,1.95803 1.84288,1.37551 1.91161,1.11189 1.80106,0.15804 1.53071,-1.05839 2.69858,-3.23114 1.95733,-0.83941 3.44126,0.31677 1.64019,0.52264 1.3213,1.17283 1.26815,1.31953 1.16504,0.6874 2.90835,1.1661 7.93913,6.615 5.18421,2.59229 3.64997,3.70098 2.59299,0.79406 5.72031,-0.63213 8.40969,-2.22767 1.80106,0.74444 1.16504,1.90772 0.84543,2.90622 0.63107,5.6615 0.74834,2.852 1.47827,1.74863 8.30303,0.58358 1.64091,0.5322 3.07027,1.74685 4.23709,1.05166 8.19886,-0.10063 2.43602,1.00417 0.58748,0.49394 c 14.18705,-3.14043 27.52477,-8.53973 39.62197,-15.79925 l -10.63417,-7.94233 21.00579,-15.71456 -25.41048,-6.49063 13.39477,-22.54288 -25.95863,3.7552 z"
     id="path16"
     style="fill:#ffffff;fill-rule:evenodd;stroke:none" />
  <path
     inkscape:connector-curvature="0"
     class="fil3"
     d="m 305.9894,144.01848 c -10.87299,27.76252 -30.72118,51.03177 -55.97929,66.18898 -12.09721,7.25952 -25.43492,12.65882 -39.62197,15.79925 l 2.74252,2.30953 0.8472,0.95385 0.74374,1.4804 0.42343,1.05732 0.6835,0.74268 1.53567,0.52547 1.48571,-0.0457 1.3213,-0.74055 1.10728,-1.16539 1.43079,-2.16922 0.4741,-0.95598 0.10559,-0.89469 -1.00418,-1.38224 -0.15803,-0.89681 0.15803,-0.89965 0.32174,-0.74232 1.74401,-0.63106 6.29681,0.0549 7.30843,0.99886 0.11693,0.0436 4.74555,1.75748 9.25866,5.02334 3.06602,1.11189 0.47516,0.47516 0.47516,-0.73524 0.37098,-0.26539 0.63709,-0.26646 0.0532,-0.62929 -0.26362,-0.74445 -0.16087,-0.69023 -1.90098,-2.16957 -0.58252,-1.21535 1.26673,-0.52938 3.12342,-0.20763 1.53,-0.47197 0.85288,0.31217 2.69114,0.47763 2.11996,-0.1102 1.43079,-0.95208 3.38598,-4.23532 1.31953,-0.52441 1.16787,0.26469 0.32103,1.36984 0.62893,0.6378 0.69307,0.42555 1.63063,0.68811 0.58926,0.68917 0.27815,0.675 c 17.92913,-21.58051 28.71354,-49.30511 28.71354,-79.53342 l 0,-0.25866 z"
     id="path18"
     style="fill:#ffffff;fill-rule:evenodd;stroke:none" />
  <path
     inkscape:connector-curvature="0"
     style="fill:#003893;fill-opacity:1;fill-rule:evenodd;stroke:none"
     d="m 538.99798,291.16565 -70.20354,0 0.0106,0.0666 0.0567,1.27276 0.73701,3.7024 0.68386,2.21775 1.1126,2.5363 1.53779,2.07425 1.90276,0.79193 3.6,-0.43015 2.0126,-0.63426 0.6874,0.74658 0.4748,1.15831 0.63071,0.95775 0.8504,0.58075 2.80629,1.26779 0.9,0.15733 0.84685,-0.69236 1.21182,-2.74607 0.79724,-1.05484 1.85315,-1.16894 2.1685,-0.63602 2.21811,-0.10098 2.01615,0.36283 4.81535,2.81091 2.32441,0.63035 2.4874,-1.10516 2.3811,-1.85244 1.42796,-0.53433 1.11259,0.63992 0.89646,0.79193 1.1126,0.16193 0.95669,-0.53681 0.47126,-1.15866 0.48544,-1.58705 0.83267,-0.37028 1.11969,0.42166 1.2685,0.6913 1.1126,-0.0563 2.06575,-1.74969 1.15866,-0.26433 0.1063,0.26433 1.5874,1.37941 0.15591,-0.0485 0.32244,0.63142 0.42165,1.26779 0.42165,0.74055 0.95315,0.90142 2.17559,1.32343 0.95315,0.95385 2.05158,-0.26574 2.54409,-2.69965 2.0126,-3.6489 0.53504,-3.12023 -0.21614,-0.90248 0.0532,-0.79583 z"
     id="polygon10" />
  <path
     inkscape:connector-curvature="0"
     style="fill:#003893;fill-opacity:1;fill-rule:evenodd;stroke:none"
     d="m 25.04484,135.23675 0,-27.27355 -0.0011,-59.77665 -0.650197,0.17256 -1.745787,1.43256 -1.002402,2.06468 0,1.95343 0.632126,1.90701 0.896811,2.00834 0.63567,1.96016 -0.102756,1.63736 -0.795827,1.58776 -1.485709,1.64019 -0.420945,0.31713 -0.792992,0.42343 -0.372047,0.32208 -0.260079,0.52335 0.100985,0.42449 0.159094,0.42271 0,0.42449 -0.474094,0.63603 -0.577914,0.58252 -1.321299,1.06334 -0.05634,0 -0.582519,0.74055 -0.588189,0.47233 -0.473032,0.47976 -0.212244,0.95102 -0.365669,0.68634 -1.961929,0.6339 -0.689173,0.52937 -0.260079,1.37835 0.473031,1.26425 1.381536,2.43708 0.525472,3.06815 0.366378,0.79087 0.530433,0.10772 0.637795,-0.0542 0.471969,0.42448 0.204803,1.43363 -0.252283,1.74685 -1.373741,4.96736 -0.636732,-0.15909 -0.845433,-0.63603 -1.168937,0.10949 -0.314291,1.10835 1.105157,3.1794 0.160866,1.16044 -0.846141,1.00701 -1.268859,0.37311 -1.37374,0 -1.1689369,-0.16158 -2.053347,0.95173 -1.326968,2.91508 -0.532205,3.32327 0.210473,2.49095 -0.581811,1.32625 -0.954922,0.74233 -1.109763,0.58004 -1.05378,0.7937 -0.7919282,1.26885 -0.4762205,1.26993 L 0.049606,114.76778 0,116.24995 l 0.4244882,3.0646 1.2157087,1.00807 1.7943302,0.37028 2.169567,1.27275 2.228386,2.96221 0.953858,0.73878 1.2681499,0.42272 2.378977,0.42661 1.109763,0.68634 0.373465,0.47197 0.740551,1.21748 0.474095,0.58287 0.584291,0.27319 1.214646,0.315 0.479763,0.41776 1.852796,3.70878 0.74126,0.94464 1.315629,0.58642 1.328032,-0.2087 1.26815,-0.3189 z"
     id="polygon20" />
  <path
     inkscape:connector-curvature="0"
     style="fill:#003893;fill-opacity:1;fill-rule:evenodd;stroke:none"
     d="m 497.84956,195.55588 37.17992,23.28378 0.86811,-1.95236 4.17756,-7.08945 1.5874,-6.34748 0.95315,-1.90382 0.7441,-1.90311 -0.37205,-3.1252 0.79724,-1.37445 -0.10984,-0.89964 -0.5811,-0.47976 -0.8504,-0.31997 -1.69015,-0.36354 -1.48111,-0.37523 -2.8559,-1.58776 -1.5378,-0.52724 -0.7937,0.10736 -1.74685,0.74445 -0.89645,0.15803 -0.84685,-0.21508 -1.37835,-0.6874 -0.74055,-0.21508 -5.23701,-0.26646 -1.27205,-0.73205 -0.73701,0.10099 -0.7937,1.21819 -1.0063,2.0622 -1.27204,1.8 -1.57677,1.47827 -1.96654,0.95492 -1.8,0.15697 -2.69646,-1.11189 -1.58031,-0.26468 -1.00984,0.31996 -2.0693,1.10728 -1.10905,-0.0507 -0.58465,-0.42343 -0.31181,-0.63318 -0.26575,-0.58146 -0.31889,-0.37134 -1.31811,-0.37524 -1.1126,0.11162 z"
     id="polygon22" />
  <path
     inkscape:connector-curvature="0"
     style="fill:#003893;fill-opacity:1;fill-rule:evenodd;stroke:none"
     d="m 463.98972,293.45037 0.8433,-0.68811 1.52008,-1.59661 -40.23071,0 2.57244,1.44035 2.07284,0.84437 1.31811,0.26468 1.05591,0.58536 0.9,0.84366 0.90354,1.06335 1.31811,0.84508 4.49646,2.11535 4.71614,2.85484 1.21181,0.26575 0.68386,-0.52831 0.47834,-0.8961 0.47835,-0.74055 0.9,-0.16087 2.37756,0.94819 0.64134,0.10666 1.68661,-0.53115 1.64055,-1.05484 1.27205,-1.53531 0.69094,-1.68874 2.05867,-1.22528 z"
     id="polygon24" />
  <path
     style="font-size:medium;font-style:normal;font-variant:normal;font-weight:normal;font-stretch:normal;text-indent:0;text-align:start;text-decoration:none;line-height:normal;letter-spacing:normal;word-spacing:normal;text-transform:none;direction:ltr;block-progression:tb;writing-mode:lr-tb;text-anchor:start;baseline-shift:baseline;color:#000000;fill:#dc143c;fill-opacity:1;fill-rule:evenodd;stroke:none;stroke-width:0.56444441999999995;marker:none;visibility:visible;display:inline;overflow:visible;enable-background:accumulate;font-family:Sans;-inkscape-font-specification:Sans"
     d="m 107.37589,183.35131 0,0.96875 0.125,-0.0312 1.15625,0.71875 1.53125,0.71875 0.28125,0.53125 1.125,0.90625 0.0937,0.0937 2.5625,2.78125 0.0937,0.0937 0.125,0.125 3.21875,1.875 0.0937,0 1.65625,1.34375 0.125,0.0937 2,1.125 0.21875,0.0937 0.21875,0 1.75,0.21875 0.34375,0 0.34375,-0.21875 1.4375,-1.09375 0.0937,0 0.125,-0.125 2.53125,-3.09375 1.6875,-0.65625 0.0937,0 2.78125,0.3125 0.21875,0 1,0.34375 0.0937,0.0937 1.21875,1 1.21875,1.34375 0.125,0 0.0937,0.0937 1.21875,0.6875 0,0.0937 0.125,0 2.875,1.21875 7.625,6.4375 0.125,0 0.0937,0.0937 5,2.4375 0.21875,0.125 3.4375,3.53125 0.0937,0.21875 0.21875,0 2.65625,0.78125 0.25,0.125 0.0937,0 5.75,-0.6875 0.125,0 8.1875,-2.09375 1,0.34375 1,1.53125 0,0.125 0.0937,0.0937 0.6875,2.4375 0.65625,5.65625 0,0.0937 0,0.125 0.78125,2.78125 0.0937,0.21875 0.125,0.21875 1.4375,1.75 0.34375,0.34375 0.3125,0 8.09375,0.5625 1.4375,0.4375 0.21875,0.125 2.875,1.65625 0.125,0 0.21875,0.0937 4.1875,1 0.125,0 0.0937,0 7.875,-0.0937 2.21875,0.875 0.21875,0.0937 0.21875,0.34375 2.65625,2.21875 0.125,0.125 0.65625,0.53125 0.0937,0.21875 0.5625,1.21875 0,0.125 0.4375,1 0.125,0.0937 0.0937,0.125 0.6875,0.78125 0.0937,0.21875 0.21875,0 1.65625,0.53125 0.125,0.125 0.21875,0 1.4375,-0.125 0.21875,0 0.21875,-0.0937 1.34375,-0.78125 0.0937,0 0.125,-0.0937 1.09375,-1.21875 0.125,0 0,-0.125 1.4375,-2.21875 0.125,0 0,-0.0937 0.4375,-0.90625 0.0937,-0.0937 0,-0.21875 0.125,-0.90625 0,-0.4375 -0.21875,-0.34375 -0.90625,-1.09375 -0.0937,-0.5625 0.0937,-0.4375 0.125,-0.21875 0,-0.0937 1,-0.46875 0.0937,0 6.09375,0 0.125,0 6.75,0.90625 0.21875,0.0937 0.21875,0 4.53125,1.65625 0.125,0.125 9.0625,4.96875 0.125,0 0.125,0.125 2.75,0.875 0.34375,0.34375 0.875,0.875 0.65625,-1 0.34375,-0.4375 0.21875,-0.21875 0.125,-0.0937 0.3125,-0.125 0.65625,-0.21875 0,-0.5625 0.125,-0.65625 0,-0.21875 -0.125,-0.21875 -0.21875,-0.65625 0,-0.125 -0.0937,-0.5625 -0.125,-0.21875 -0.0937,-0.21875 -1.78125,-1.875 -0.0937,-0.21875 0,-0.125 2.96875,-0.21875 0.21875,0 0.125,0 1.21875,-0.4375 0.5625,0.21875 0.0937,0 2.65625,0.5625 0.125,0 0.0937,0 2.21875,-0.125 0.21875,-0.0937 0.21875,-0.125 1.4375,-0.875 0.125,-0.125 0.0937,-0.0937 3.21875,-4.09375 0.875,-0.21875 0.125,0 0.21875,0.75 0.125,0.34375 0.21875,0.0937 0.53125,0.6875 0.125,0.0937 0.125,0 0.65625,0.4375 0.0937,0.125 1.4375,0.5625 0.46875,0.53125 0.0937,0.46875 0.4375,1.09375 0.21875,0.4375 0.46875,0.125 0.65625,0.21875 0.21875,0 0.21875,0 2.53125,-0.71875 0.8125,-0.6875 -0.0312,-0.0312 -0.875,-0.65625 -0.34375,-0.25 -0.4375,0 -1.78125,0.34375 -0.21775,-0.656 -0.3125,-0.65625 0,-0.25 -0.125,-0.0937 -0.65625,-0.65625 -0.125,-0.21875 -0.21875,-0.125 -1.4375,-0.5625 -0.21875,-0.0937 -0.3125,-0.21875 -0.25,-0.125 -0.0937,-0.21875 -0.34375,-1.21875 -0.21875,-0.5625 -0.5625,-0.0937 -1.21875,-0.34375 -0.21875,0 -0.3125,0.125 -1.34375,0.4375 -0.21875,0.0937 -0.0937,0.25 -3.21875,4.09375 -0.21875,0.21875 -1.125,0.53125 -1.53125,0.125 -0.21875,0 -2.21875,-0.4375 -0.90625,-0.34375 -0.3125,-0.0937 -0.34375,0.0937 -1.3125,0.4375 -0.21875,0 -2.90625,0.21875 -0.0937,0 -0.21875,0 -1.21875,0.5625 -1,0.4375 0.4375,0.90625 0.5625,1.21875 0.0937,0.0937 0.125,0.125 1.65625,2 0.125,0.4375 0,0.0937 0.0937,0.125 0.125,0.3125 -0.125,0 -0.0937,0.125 -0.34375,0.21875 0,0.125 -0.125,0 -2.875,-1 -0.0937,-0.125 -9.1875,-4.875 0,-0.0937 -0.125,0 -4.53125,-1.65625 -0.125,0 -0.0937,-0.125 -0.21875,-0.125 -7.3125,-0.96875 -0.125,0 -0.0937,0 -6.3125,0 -0.125,0 -0.21875,0 -1.78125,0.65625 -0.3125,0.0937 -0.21875,0.46875 -0.34375,0.65625 0,0.0937 0,0.125 -0.21875,1 0,0.0937 0,0.21875 0.21875,0.90625 0,0.21875 0.125,0.21875 0.875,1.09375 -0.125,0.34375 0,0.125 -0.3125,0.4375 0,0.0937 -1.34375,2 -0.0937,0.125 -0.78125,0.875 -0.21875,0.0937 -0.65625,0.46875 -0.125,0 -1,0.0937 -0.0937,0 -1.21875,-0.4375 -0.21875,-0.21875 0,-0.125 -0.46875,-1 -0.0937,0 -0.65625,-1.53125 -0.125,-0.125 -0.0937,-0.0937 -0.78125,-0.90625 -0.125,-0.0937 -2.75,-2.3125 -0.5625,-0.46875 -0.125,-0.0937 -0.0937,-0.125 -2.4375,-1 -0.21875,-0.0937 -0.21875,0 -7.96875,0.0937 -0.25,0 -3.75,-0.875 -0.21875,-0.125 -2.875,-1.65625 -0.125,0 -1.65625,-0.53125 -0.0937,-0.125 -0.125,0 -7.875,-0.5625 -1.09375,-1.21875 -0.65625,-2.53125 0,-0.125 -0.6875,-5.53125 0,-0.0937 -0.875,-2.90625 0,-0.21875 -0.0937,-0.0937 -1.125,-1.875 -0.21875,-0.21875 -0.21875,-0.125 -1.875,-0.78125 -0.21875,-0.0937 -0.34375,0 -8.3125,2.21875 -0.0937,0 -5.21875,0.65625 -0.0937,0 -2.34375,-0.78125 -0.0937,0 -3.34375,-3.4375 -0.0937,-0.0937 -0.125,-0.125 -4.96875,-2.4375 -0.21875,-0.0937 -7.75,-6.5625 -0.125,-0.0937 -0.0937,0 -2.78125,-1.09375 -0.0937,-0.125 -0.90625,-0.4375 -1.21875,-1.34375 -0.0937,0 -1.34375,-1.21875 -0.0937,-0.0937 -0.25,-0.125 -1.65625,-0.4375 -0.0937,-0.125 -0.125,0 -3.4375,-0.3125 -0.21875,0 -0.21875,0.0937 -2,0.90625 -0.21875,0.0937 -0.0937,0.125 -2.78125,3.21875 -1.09375,0.75 -0.90625,-0.0937 -0.0937,-0.125 -1.78125,-0.875 -0.0937,-0.125 -1.65625,-1.3125 -0.125,0 -3.09375,-1.78125 -0.21875,-0.21875 -2.4375,-2.65625 -0.125,0 0,-0.0937 -1.4375,-1.125 -0.0937,-0.0937 -0.21875,-0.125 -1.34375,-0.4375 -0.125,-0.125 -0.0937,0 -0.125,0 z"
     id="path14-1"
     inkscape:connector-curvature="0"
     sodipodi:nodetypes="ccccccccccccccccccccccccccccccccccccccccccccccccccccccccccccccccccccccccccccccccccccccccccccccccccccccccccccccccccccccccccccccccccccccccccccccccccccccccccccccccccccccccccccccccccccccccccccccccccccccccccccccccccccccccccccccccccccccccccccccccccccccccccccccccccccccccccccccccccccccccccccccccccccccccccccccccccccccccccccccccccccccccccccccccccccccccccccccccccccccccccccccccccccccccc" />
</svg>
